<?xml version="1.0" encoding="UTF-8" standalone="no"?>
<!DOCTYPE svg PUBLIC "-//W3C//DTD SVG 1.1//EN"
 "http://www.w3.org/Graphics/SVG/1.1/DTD/svg11.dtd">
<!-- Generated by graphviz version 2.43.0 (0)
 -->
<!-- Title: %3 Pages: 1 -->
<svg width="1837pt" height="210pt"
 viewBox="0.00 0.00 1837.09 210.00" xmlns="http://www.w3.org/2000/svg" xmlns:xlink="http://www.w3.org/1999/xlink">
<g id="graph0" class="graph" transform="scale(1 1) rotate(0) translate(4 206)">
<title>%3</title>
<polygon fill="white" stroke="transparent" points="-4,4 -4,-206 1833.09,-206 1833.09,4 -4,4"/>
<!-- 0 -->
<g id="node1" class="node">
<title>0</title>
<polygon fill="none" stroke="black" points="1.5,-165.5 1.5,-201.5 255.5,-201.5 255.5,-165.5 1.5,-165.5"/>
<text text-anchor="middle" x="18.5" y="-179.8" font-family="Times,serif" font-size="14.00">x1</text>
<polyline fill="none" stroke="black" points="35.5,-165.5 35.5,-201.5 "/>
<text text-anchor="middle" x="89" y="-179.8" font-family="Times,serif" font-size="14.00">data: 2.0000</text>
<polyline fill="none" stroke="black" points="142.5,-165.5 142.5,-201.5 "/>
<text text-anchor="middle" x="199" y="-179.8" font-family="Times,serif" font-size="14.00">grad: &#45;1.5000</text>
</g>
<!-- 5999 -->
<g id="node7" class="node">
<title>5999</title>
<ellipse fill="none" stroke="black" cx="311" cy="-128.5" rx="18" ry="18"/>
<text text-anchor="middle" x="311" y="-124.8" font-family="Times,serif" font-size="14.00">*</text>
</g>
<!-- 0&#45;&gt;5999 -->
<g id="edge1" class="edge">
<title>0&#45;&gt;5999</title>
<path fill="none" stroke="black" d="M228.08,-165.5C237.95,-162.84 247.75,-159.85 257,-156.5 267.02,-152.87 277.51,-147.66 286.48,-142.72"/>
<polygon fill="black" stroke="black" points="288.25,-145.74 295.21,-137.75 284.79,-139.66 288.25,-145.74"/>
</g>
<!-- 1 -->
<g id="node2" class="node">
<title>1</title>
<polygon fill="none" stroke="black" points="4,-55.5 4,-91.5 253,-91.5 253,-55.5 4,-55.5"/>
<text text-anchor="middle" x="21" y="-69.8" font-family="Times,serif" font-size="14.00">x2</text>
<polyline fill="none" stroke="black" points="38,-55.5 38,-91.5 "/>
<text text-anchor="middle" x="91.5" y="-69.8" font-family="Times,serif" font-size="14.00">data: 0.0000</text>
<polyline fill="none" stroke="black" points="145,-55.5 145,-91.5 "/>
<text text-anchor="middle" x="199" y="-69.8" font-family="Times,serif" font-size="14.00">grad: 0.5000</text>
</g>
<!-- 6999 -->
<g id="node9" class="node">
<title>6999</title>
<ellipse fill="none" stroke="black" cx="311" cy="-73.5" rx="18" ry="18"/>
<text text-anchor="middle" x="311" y="-69.8" font-family="Times,serif" font-size="14.00">*</text>
</g>
<!-- 1&#45;&gt;6999 -->
<g id="edge4" class="edge">
<title>1&#45;&gt;6999</title>
<path fill="none" stroke="black" d="M253.38,-73.5C263.99,-73.5 273.88,-73.5 282.32,-73.5"/>
<polygon fill="black" stroke="black" points="282.53,-77 292.53,-73.5 282.53,-70 282.53,-77"/>
</g>
<!-- 2 -->
<g id="node3" class="node">
<title>2</title>
<polygon fill="none" stroke="black" points="0,-110.5 0,-146.5 257,-146.5 257,-110.5 0,-110.5"/>
<text text-anchor="middle" x="19" y="-124.8" font-family="Times,serif" font-size="14.00">w1</text>
<polyline fill="none" stroke="black" points="38,-110.5 38,-146.5 "/>
<text text-anchor="middle" x="93.5" y="-124.8" font-family="Times,serif" font-size="14.00">data: &#45;3.0000</text>
<polyline fill="none" stroke="black" points="149,-110.5 149,-146.5 "/>
<text text-anchor="middle" x="203" y="-124.8" font-family="Times,serif" font-size="14.00">grad: 1.0000</text>
</g>
<!-- 2&#45;&gt;5999 -->
<g id="edge3" class="edge">
<title>2&#45;&gt;5999</title>
<path fill="none" stroke="black" d="M257.31,-128.5C266.64,-128.5 275.32,-128.5 282.83,-128.5"/>
<polygon fill="black" stroke="black" points="282.95,-132 292.95,-128.5 282.95,-125 282.95,-132"/>
</g>
<!-- 3 -->
<g id="node4" class="node">
<title>3</title>
<polygon fill="none" stroke="black" points="2,-0.5 2,-36.5 255,-36.5 255,-0.5 2,-0.5"/>
<text text-anchor="middle" x="21" y="-14.8" font-family="Times,serif" font-size="14.00">w2</text>
<polyline fill="none" stroke="black" points="40,-0.5 40,-36.5 "/>
<text text-anchor="middle" x="93.5" y="-14.8" font-family="Times,serif" font-size="14.00">data: 1.0000</text>
<polyline fill="none" stroke="black" points="147,-0.5 147,-36.5 "/>
<text text-anchor="middle" x="201" y="-14.8" font-family="Times,serif" font-size="14.00">grad: 0.0000</text>
</g>
<!-- 3&#45;&gt;6999 -->
<g id="edge6" class="edge">
<title>3&#45;&gt;6999</title>
<path fill="none" stroke="black" d="M224.61,-36.57C235.65,-39.49 246.65,-42.8 257,-46.5 266.85,-50.03 277.21,-54.99 286.13,-59.7"/>
<polygon fill="black" stroke="black" points="284.7,-62.91 295.15,-64.64 288.06,-56.77 284.7,-62.91"/>
</g>
<!-- 4 -->
<g id="node5" class="node">
<title>4</title>
<polygon fill="none" stroke="black" points="808.7,-27.5 808.7,-63.5 1049.7,-63.5 1049.7,-27.5 808.7,-27.5"/>
<text text-anchor="middle" x="821.7" y="-41.8" font-family="Times,serif" font-size="14.00">b</text>
<polyline fill="none" stroke="black" points="834.7,-27.5 834.7,-63.5 "/>
<text text-anchor="middle" x="888.2" y="-41.8" font-family="Times,serif" font-size="14.00">data: 6.8814</text>
<polyline fill="none" stroke="black" points="941.7,-27.5 941.7,-63.5 "/>
<text text-anchor="middle" x="995.7" y="-41.8" font-family="Times,serif" font-size="14.00">grad: 0.5000</text>
</g>
<!-- 8999 -->
<g id="node13" class="node">
<title>8999</title>
<ellipse fill="none" stroke="black" cx="1157.54" cy="-72.5" rx="18.7" ry="18.7"/>
<text text-anchor="middle" x="1157.54" y="-68.8" font-family="Times,serif" font-size="14.00">+</text>
</g>
<!-- 4&#45;&gt;8999 -->
<g id="edge12" class="edge">
<title>4&#45;&gt;8999</title>
<path fill="none" stroke="black" d="M1050,-59.79C1079.48,-63.31 1108.36,-66.75 1128.6,-69.17"/>
<polygon fill="black" stroke="black" points="1128.29,-72.65 1138.63,-70.36 1129.12,-65.7 1128.29,-72.65"/>
</g>
<!-- 5 -->
<g id="node6" class="node">
<title>5</title>
<polygon fill="none" stroke="black" points="365,-110.5 365,-146.5 646,-146.5 646,-110.5 365,-110.5"/>
<text text-anchor="middle" x="396" y="-124.8" font-family="Times,serif" font-size="14.00">x1*w1</text>
<polyline fill="none" stroke="black" points="427,-110.5 427,-146.5 "/>
<text text-anchor="middle" x="482.5" y="-124.8" font-family="Times,serif" font-size="14.00">data: &#45;6.0000</text>
<polyline fill="none" stroke="black" points="538,-110.5 538,-146.5 "/>
<text text-anchor="middle" x="592" y="-124.8" font-family="Times,serif" font-size="14.00">grad: 0.5000</text>
</g>
<!-- 7999 -->
<g id="node11" class="node">
<title>7999</title>
<ellipse fill="none" stroke="black" cx="700.85" cy="-100.5" rx="18.7" ry="18.7"/>
<text text-anchor="middle" x="700.85" y="-96.8" font-family="Times,serif" font-size="14.00">+</text>
</g>
<!-- 5&#45;&gt;7999 -->
<g id="edge7" class="edge">
<title>5&#45;&gt;7999</title>
<path fill="none" stroke="black" d="M630.86,-110.49C646.09,-108.29 660.31,-106.23 671.84,-104.56"/>
<polygon fill="black" stroke="black" points="672.61,-107.98 682.01,-103.08 671.61,-101.05 672.61,-107.98"/>
</g>
<!-- 5999&#45;&gt;5 -->
<g id="edge2" class="edge">
<title>5999&#45;&gt;5</title>
<path fill="none" stroke="black" d="M329.08,-128.5C336.05,-128.5 344.8,-128.5 354.65,-128.5"/>
<polygon fill="black" stroke="black" points="354.83,-132 364.83,-128.5 354.83,-125 354.83,-132"/>
</g>
<!-- 6 -->
<g id="node8" class="node">
<title>6</title>
<polygon fill="none" stroke="black" points="367,-55.5 367,-91.5 644,-91.5 644,-55.5 367,-55.5"/>
<text text-anchor="middle" x="398" y="-69.8" font-family="Times,serif" font-size="14.00">x2*w2</text>
<polyline fill="none" stroke="black" points="429,-55.5 429,-91.5 "/>
<text text-anchor="middle" x="482.5" y="-69.8" font-family="Times,serif" font-size="14.00">data: 0.0000</text>
<polyline fill="none" stroke="black" points="536,-55.5 536,-91.5 "/>
<text text-anchor="middle" x="590" y="-69.8" font-family="Times,serif" font-size="14.00">grad: 0.5000</text>
</g>
<!-- 6&#45;&gt;7999 -->
<g id="edge9" class="edge">
<title>6&#45;&gt;7999</title>
<path fill="none" stroke="black" d="M635.47,-91.51C649.04,-93.4 661.65,-95.17 672.05,-96.62"/>
<polygon fill="black" stroke="black" points="671.65,-100.1 682.04,-98.01 672.62,-93.16 671.65,-100.1"/>
</g>
<!-- 6999&#45;&gt;6 -->
<g id="edge5" class="edge">
<title>6999&#45;&gt;6</title>
<path fill="none" stroke="black" d="M329.08,-73.5C336.55,-73.5 346.06,-73.5 356.77,-73.5"/>
<polygon fill="black" stroke="black" points="356.93,-77 366.93,-73.5 356.93,-70 356.93,-77"/>
</g>
<!-- 7 -->
<g id="node10" class="node">
<title>7</title>
<polygon fill="none" stroke="black" points="755.7,-82.5 755.7,-118.5 1102.7,-118.5 1102.7,-82.5 755.7,-82.5"/>
<text text-anchor="middle" x="819.7" y="-96.8" font-family="Times,serif" font-size="14.00">x1*w1 + x2*w2</text>
<polyline fill="none" stroke="black" points="883.7,-82.5 883.7,-118.5 "/>
<text text-anchor="middle" x="939.2" y="-96.8" font-family="Times,serif" font-size="14.00">data: &#45;6.0000</text>
<polyline fill="none" stroke="black" points="994.7,-82.5 994.7,-118.5 "/>
<text text-anchor="middle" x="1048.7" y="-96.8" font-family="Times,serif" font-size="14.00">grad: 0.5000</text>
</g>
<!-- 7&#45;&gt;8999 -->
<g id="edge10" class="edge">
<title>7&#45;&gt;8999</title>
<path fill="none" stroke="black" d="M1075.79,-82.49C1095.89,-80 1114.51,-77.7 1128.79,-75.93"/>
<polygon fill="black" stroke="black" points="1129.32,-79.39 1138.81,-74.69 1128.46,-72.45 1129.32,-79.39"/>
</g>
<!-- 7999&#45;&gt;7 -->
<g id="edge8" class="edge">
<title>7999&#45;&gt;7</title>
<path fill="none" stroke="black" d="M719.99,-100.5C726.91,-100.5 735.51,-100.5 745.24,-100.5"/>
<polygon fill="black" stroke="black" points="745.32,-104 755.32,-100.5 745.32,-97 745.32,-104"/>
</g>
<!-- 8 -->
<g id="node12" class="node">
<title>8</title>
<polygon fill="none" stroke="black" points="1212.39,-54.5 1212.39,-90.5 1453.39,-90.5 1453.39,-54.5 1212.39,-54.5"/>
<text text-anchor="middle" x="1225.39" y="-68.8" font-family="Times,serif" font-size="14.00">n</text>
<polyline fill="none" stroke="black" points="1238.39,-54.5 1238.39,-90.5 "/>
<text text-anchor="middle" x="1291.89" y="-68.8" font-family="Times,serif" font-size="14.00">data: 0.8814</text>
<polyline fill="none" stroke="black" points="1345.39,-54.5 1345.39,-90.5 "/>
<text text-anchor="middle" x="1399.39" y="-68.8" font-family="Times,serif" font-size="14.00">grad: 0.5000</text>
</g>
<!-- 9999 -->
<g id="node15" class="node">
<title>9999</title>
<ellipse fill="none" stroke="black" cx="1521.24" cy="-72.5" rx="31.7" ry="31.7"/>
<text text-anchor="middle" x="1521.24" y="-68.8" font-family="Times,serif" font-size="14.00">tanh</text>
</g>
<!-- 8&#45;&gt;9999 -->
<g id="edge13" class="edge">
<title>8&#45;&gt;9999</title>
<path fill="none" stroke="black" d="M1453.49,-72.5C1462.46,-72.5 1471.07,-72.5 1478.95,-72.5"/>
<polygon fill="black" stroke="black" points="1479.21,-76 1489.21,-72.5 1479.21,-69 1479.21,-76"/>
</g>
<!-- 8999&#45;&gt;8 -->
<g id="edge11" class="edge">
<title>8999&#45;&gt;8</title>
<path fill="none" stroke="black" d="M1176.44,-72.5C1183.52,-72.5 1192.29,-72.5 1202.05,-72.5"/>
<polygon fill="black" stroke="black" points="1202.1,-76 1212.1,-72.5 1202.1,-69 1202.1,-76"/>
</g>
<!-- 9 -->
<g id="node14" class="node">
<title>9</title>
<polygon fill="none" stroke="black" points="1589.09,-54.5 1589.09,-90.5 1829.09,-90.5 1829.09,-54.5 1589.09,-54.5"/>
<text text-anchor="middle" x="1601.59" y="-68.8" font-family="Times,serif" font-size="14.00">o</text>
<polyline fill="none" stroke="black" points="1614.09,-54.5 1614.09,-90.5 "/>
<text text-anchor="middle" x="1667.59" y="-68.8" font-family="Times,serif" font-size="14.00">data: 0.7071</text>
<polyline fill="none" stroke="black" points="1721.09,-54.5 1721.09,-90.5 "/>
<text text-anchor="middle" x="1775.09" y="-68.8" font-family="Times,serif" font-size="14.00">grad: 0.0000</text>
</g>
<!-- 9999&#45;&gt;9 -->
<g id="edge14" class="edge">
<title>9999&#45;&gt;9</title>
<path fill="none" stroke="black" d="M1553.35,-72.5C1560.94,-72.5 1569.53,-72.5 1578.69,-72.5"/>
<polygon fill="black" stroke="black" points="1578.82,-76 1588.82,-72.5 1578.82,-69 1578.82,-76"/>
</g>
</g>
</svg>
