<?xml version="1.0" encoding="UTF-8" standalone="no"?>
<!DOCTYPE svg PUBLIC "-//W3C//DTD SVG 1.1//EN"
 "http://www.w3.org/Graphics/SVG/1.1/DTD/svg11.dtd">
<!-- Generated by graphviz version 2.43.0 (0)
 -->
<!-- Title: %3 Pages: 1 -->
<svg width="961pt" height="100pt"
 viewBox="0.00 0.00 960.70 100.35" xmlns="http://www.w3.org/2000/svg" xmlns:xlink="http://www.w3.org/1999/xlink">
<g id="graph0" class="graph" transform="scale(1 1) rotate(0) translate(4 96.35)">
<title>%3</title>
<polygon fill="white" stroke="transparent" points="-4,4 -4,-96.35 956.7,-96.35 956.7,4 -4,4"/>
<!-- 0 -->
<g id="node1" class="node">
<title>0</title>
<polygon fill="none" stroke="black" points="0,-55.85 0,-91.85 249,-91.85 249,-55.85 0,-55.85"/>
<text text-anchor="middle" x="12.5" y="-70.15" font-family="Times,serif" font-size="14.00">a</text>
<polyline fill="none" stroke="black" points="25,-55.85 25,-91.85 "/>
<text text-anchor="middle" x="80.5" y="-70.15" font-family="Times,serif" font-size="14.00">data: &#45;2.0000</text>
<polyline fill="none" stroke="black" points="136,-55.85 136,-91.85 "/>
<text text-anchor="middle" x="192.5" y="-70.15" font-family="Times,serif" font-size="14.00">grad: &#45;3.0000</text>
</g>
<!-- 2999 -->
<g id="node4" class="node">
<title>2999</title>
<ellipse fill="none" stroke="black" cx="303.85" cy="-73.85" rx="18" ry="18"/>
<text text-anchor="middle" x="303.85" y="-70.15" font-family="Times,serif" font-size="14.00">*</text>
</g>
<!-- 0&#45;&gt;2999 -->
<g id="edge1" class="edge">
<title>0&#45;&gt;2999</title>
<path fill="none" stroke="black" d="M249.16,-73.85C258.73,-73.85 267.65,-73.85 275.36,-73.85"/>
<polygon fill="black" stroke="black" points="275.41,-77.35 285.41,-73.85 275.41,-70.35 275.41,-77.35"/>
</g>
<!-- 3999 -->
<g id="node6" class="node">
<title>3999</title>
<ellipse fill="none" stroke="black" cx="303.85" cy="-18.85" rx="18.7" ry="18.7"/>
<text text-anchor="middle" x="303.85" y="-15.15" font-family="Times,serif" font-size="14.00">+</text>
</g>
<!-- 0&#45;&gt;3999 -->
<g id="edge4" class="edge">
<title>0&#45;&gt;3999</title>
<path fill="none" stroke="black" d="M216.6,-55.83C227.63,-52.88 238.65,-49.55 249,-45.85 258.94,-42.29 269.41,-37.34 278.45,-32.65"/>
<polygon fill="black" stroke="black" points="280.11,-35.73 287.27,-27.92 276.8,-29.56 280.11,-35.73"/>
</g>
<!-- 1 -->
<g id="node2" class="node">
<title>1</title>
<polygon fill="none" stroke="black" points="1.5,-0.85 1.5,-36.85 247.5,-36.85 247.5,-0.85 1.5,-0.85"/>
<text text-anchor="middle" x="14.5" y="-15.15" font-family="Times,serif" font-size="14.00">b</text>
<polyline fill="none" stroke="black" points="27.5,-0.85 27.5,-36.85 "/>
<text text-anchor="middle" x="81" y="-15.15" font-family="Times,serif" font-size="14.00">data: 3.0000</text>
<polyline fill="none" stroke="black" points="134.5,-0.85 134.5,-36.85 "/>
<text text-anchor="middle" x="191" y="-15.15" font-family="Times,serif" font-size="14.00">grad: &#45;8.0000</text>
</g>
<!-- 1&#45;&gt;2999 -->
<g id="edge3" class="edge">
<title>1&#45;&gt;2999</title>
<path fill="none" stroke="black" d="M220.3,-36.88C230.09,-39.54 239.82,-42.52 249,-45.85 259.15,-49.52 269.79,-54.74 278.92,-59.67"/>
<polygon fill="black" stroke="black" points="277.35,-62.81 287.79,-64.64 280.77,-56.7 277.35,-62.81"/>
</g>
<!-- 1&#45;&gt;3999 -->
<g id="edge6" class="edge">
<title>1&#45;&gt;3999</title>
<path fill="none" stroke="black" d="M247.71,-18.85C257.61,-18.85 266.85,-18.85 274.84,-18.85"/>
<polygon fill="black" stroke="black" points="274.89,-22.35 284.89,-18.85 274.89,-15.35 274.89,-22.35"/>
</g>
<!-- 2 -->
<g id="node3" class="node">
<title>2</title>
<polygon fill="none" stroke="black" points="358.7,-55.85 358.7,-91.85 603.7,-91.85 603.7,-55.85 358.7,-55.85"/>
<text text-anchor="middle" x="371.7" y="-70.15" font-family="Times,serif" font-size="14.00">d</text>
<polyline fill="none" stroke="black" points="384.7,-55.85 384.7,-91.85 "/>
<text text-anchor="middle" x="440.2" y="-70.15" font-family="Times,serif" font-size="14.00">data: &#45;6.0000</text>
<polyline fill="none" stroke="black" points="495.7,-55.85 495.7,-91.85 "/>
<text text-anchor="middle" x="549.7" y="-70.15" font-family="Times,serif" font-size="14.00">grad: 1.0000</text>
</g>
<!-- 4999 -->
<g id="node8" class="node">
<title>4999</title>
<ellipse fill="none" stroke="black" cx="657.7" cy="-45.85" rx="18" ry="18"/>
<text text-anchor="middle" x="657.7" y="-42.15" font-family="Times,serif" font-size="14.00">*</text>
</g>
<!-- 2&#45;&gt;4999 -->
<g id="edge7" class="edge">
<title>2&#45;&gt;4999</title>
<path fill="none" stroke="black" d="M594.68,-55.8C607.57,-53.73 619.65,-51.79 629.66,-50.19"/>
<polygon fill="black" stroke="black" points="630.34,-53.62 639.65,-48.58 629.23,-46.71 630.34,-53.62"/>
</g>
<!-- 2999&#45;&gt;2 -->
<g id="edge2" class="edge">
<title>2999&#45;&gt;2</title>
<path fill="none" stroke="black" d="M321.98,-73.85C329.23,-73.85 338.37,-73.85 348.58,-73.85"/>
<polygon fill="black" stroke="black" points="348.67,-77.35 358.67,-73.85 348.67,-70.35 348.67,-77.35"/>
</g>
<!-- 3 -->
<g id="node5" class="node">
<title>3</title>
<polygon fill="none" stroke="black" points="358.7,-0.85 358.7,-36.85 603.7,-36.85 603.7,-0.85 358.7,-0.85"/>
<text text-anchor="middle" x="371.2" y="-15.15" font-family="Times,serif" font-size="14.00">e</text>
<polyline fill="none" stroke="black" points="383.7,-0.85 383.7,-36.85 "/>
<text text-anchor="middle" x="437.2" y="-15.15" font-family="Times,serif" font-size="14.00">data: 1.0000</text>
<polyline fill="none" stroke="black" points="490.7,-0.85 490.7,-36.85 "/>
<text text-anchor="middle" x="547.2" y="-15.15" font-family="Times,serif" font-size="14.00">grad: &#45;6.0000</text>
</g>
<!-- 3&#45;&gt;4999 -->
<g id="edge9" class="edge">
<title>3&#45;&gt;4999</title>
<path fill="none" stroke="black" d="M598.59,-36.86C609.97,-38.62 620.6,-40.26 629.58,-41.65"/>
<polygon fill="black" stroke="black" points="629.23,-45.14 639.65,-43.21 630.3,-38.22 629.23,-45.14"/>
</g>
<!-- 3999&#45;&gt;3 -->
<g id="edge5" class="edge">
<title>3999&#45;&gt;3</title>
<path fill="none" stroke="black" d="M322.95,-18.85C330.04,-18.85 338.82,-18.85 348.58,-18.85"/>
<polygon fill="black" stroke="black" points="348.64,-22.35 358.64,-18.85 348.64,-15.35 348.64,-22.35"/>
</g>
<!-- 4 -->
<g id="node7" class="node">
<title>4</title>
<polygon fill="none" stroke="black" points="711.7,-27.85 711.7,-63.85 952.7,-63.85 952.7,-27.85 711.7,-27.85"/>
<text text-anchor="middle" x="722.7" y="-42.15" font-family="Times,serif" font-size="14.00">f</text>
<polyline fill="none" stroke="black" points="733.7,-27.85 733.7,-63.85 "/>
<text text-anchor="middle" x="789.2" y="-42.15" font-family="Times,serif" font-size="14.00">data: &#45;6.0000</text>
<polyline fill="none" stroke="black" points="844.7,-27.85 844.7,-63.85 "/>
<text text-anchor="middle" x="898.7" y="-42.15" font-family="Times,serif" font-size="14.00">grad: 1.0000</text>
</g>
<!-- 4999&#45;&gt;4 -->
<g id="edge8" class="edge">
<title>4999&#45;&gt;4</title>
<path fill="none" stroke="black" d="M675.87,-45.85C682.9,-45.85 691.7,-45.85 701.51,-45.85"/>
<polygon fill="black" stroke="black" points="701.63,-49.35 711.63,-45.85 701.63,-42.35 701.63,-49.35"/>
</g>
</g>
</svg>
