<?xml version="1.0" encoding="UTF-8" standalone="no"?>
<!DOCTYPE svg PUBLIC "-//W3C//DTD SVG 1.1//EN"
 "http://www.w3.org/Graphics/SVG/1.1/DTD/svg11.dtd">
<!-- Generated by graphviz version 2.43.0 (0)
 -->
<!-- Title: %3 Pages: 1 -->
<svg width="1313pt" height="156pt"
 viewBox="0.00 0.00 1312.70 156.00" xmlns="http://www.w3.org/2000/svg" xmlns:xlink="http://www.w3.org/1999/xlink">
<g id="graph0" class="graph" transform="scale(1 1) rotate(0) translate(4 152)">
<title>%3</title>
<polygon fill="white" stroke="transparent" points="-4,4 -4,-152 1308.7,-152 1308.7,4 -4,4"/>
<!-- 0 -->
<g id="node1" class="node">
<title>0</title>
<polygon fill="none" stroke="black" points="2.5,-111.5 2.5,-147.5 242.5,-147.5 242.5,-111.5 2.5,-111.5"/>
<text text-anchor="middle" x="15" y="-125.8" font-family="Times,serif" font-size="14.00">a</text>
<polyline fill="none" stroke="black" points="27.5,-111.5 27.5,-147.5 "/>
<text text-anchor="middle" x="81" y="-125.8" font-family="Times,serif" font-size="14.00">data: 2.0000</text>
<polyline fill="none" stroke="black" points="134.5,-111.5 134.5,-147.5 "/>
<text text-anchor="middle" x="188.5" y="-125.8" font-family="Times,serif" font-size="14.00">grad: 0.0000</text>
</g>
<!-- 3999 -->
<g id="node5" class="node">
<title>3999</title>
<ellipse fill="none" stroke="black" cx="299" cy="-101.5" rx="18" ry="18"/>
<text text-anchor="middle" x="299" y="-97.8" font-family="Times,serif" font-size="14.00">*</text>
</g>
<!-- 0&#45;&gt;3999 -->
<g id="edge1" class="edge">
<title>0&#45;&gt;3999</title>
<path fill="none" stroke="black" d="M235.99,-111.45C248.87,-109.38 260.95,-107.45 270.96,-105.84"/>
<polygon fill="black" stroke="black" points="271.64,-109.27 280.96,-104.23 270.53,-102.36 271.64,-109.27"/>
</g>
<!-- 1 -->
<g id="node2" class="node">
<title>1</title>
<polygon fill="none" stroke="black" points="0,-56.5 0,-92.5 245,-92.5 245,-56.5 0,-56.5"/>
<text text-anchor="middle" x="13" y="-70.8" font-family="Times,serif" font-size="14.00">b</text>
<polyline fill="none" stroke="black" points="26,-56.5 26,-92.5 "/>
<text text-anchor="middle" x="81.5" y="-70.8" font-family="Times,serif" font-size="14.00">data: &#45;3.0000</text>
<polyline fill="none" stroke="black" points="137,-56.5 137,-92.5 "/>
<text text-anchor="middle" x="191" y="-70.8" font-family="Times,serif" font-size="14.00">grad: 0.0000</text>
</g>
<!-- 1&#45;&gt;3999 -->
<g id="edge3" class="edge">
<title>1&#45;&gt;3999</title>
<path fill="none" stroke="black" d="M239.89,-92.51C251.27,-94.27 261.9,-95.91 270.88,-97.3"/>
<polygon fill="black" stroke="black" points="270.53,-100.79 280.95,-98.86 271.6,-93.87 270.53,-100.79"/>
</g>
<!-- 2 -->
<g id="node3" class="node">
<title>2</title>
<polygon fill="none" stroke="black" points="353,-28.5 353,-64.5 601,-64.5 601,-28.5 353,-28.5"/>
<text text-anchor="middle" x="365" y="-42.8" font-family="Times,serif" font-size="14.00">c</text>
<polyline fill="none" stroke="black" points="377,-28.5 377,-64.5 "/>
<text text-anchor="middle" x="435" y="-42.8" font-family="Times,serif" font-size="14.00">data: 10.0000</text>
<polyline fill="none" stroke="black" points="493,-28.5 493,-64.5 "/>
<text text-anchor="middle" x="547" y="-42.8" font-family="Times,serif" font-size="14.00">grad: 0.0000</text>
</g>
<!-- 4999 -->
<g id="node7" class="node">
<title>4999</title>
<ellipse fill="none" stroke="black" cx="655.85" cy="-73.5" rx="18.7" ry="18.7"/>
<text text-anchor="middle" x="655.85" y="-69.8" font-family="Times,serif" font-size="14.00">+</text>
</g>
<!-- 2&#45;&gt;4999 -->
<g id="edge6" class="edge">
<title>2&#45;&gt;4999</title>
<path fill="none" stroke="black" d="M595.96,-64.51C607.31,-66.24 617.93,-67.86 626.94,-69.24"/>
<polygon fill="black" stroke="black" points="626.65,-72.74 637.07,-70.79 627.71,-65.82 626.65,-72.74"/>
</g>
<!-- 3 -->
<g id="node4" class="node">
<title>3</title>
<polygon fill="none" stroke="black" points="355,-83.5 355,-119.5 599,-119.5 599,-83.5 355,-83.5"/>
<text text-anchor="middle" x="367.5" y="-97.8" font-family="Times,serif" font-size="14.00">e</text>
<polyline fill="none" stroke="black" points="380,-83.5 380,-119.5 "/>
<text text-anchor="middle" x="435.5" y="-97.8" font-family="Times,serif" font-size="14.00">data: &#45;6.0000</text>
<polyline fill="none" stroke="black" points="491,-83.5 491,-119.5 "/>
<text text-anchor="middle" x="545" y="-97.8" font-family="Times,serif" font-size="14.00">grad: 0.0000</text>
</g>
<!-- 3&#45;&gt;4999 -->
<g id="edge4" class="edge">
<title>3&#45;&gt;4999</title>
<path fill="none" stroke="black" d="M592,-83.45C604.86,-81.41 616.93,-79.5 626.99,-77.91"/>
<polygon fill="black" stroke="black" points="627.72,-81.34 637.05,-76.32 626.63,-74.42 627.72,-81.34"/>
</g>
<!-- 3999&#45;&gt;3 -->
<g id="edge2" class="edge">
<title>3999&#45;&gt;3</title>
<path fill="none" stroke="black" d="M317.2,-101.5C324.68,-101.5 334.17,-101.5 344.77,-101.5"/>
<polygon fill="black" stroke="black" points="344.8,-105 354.8,-101.5 344.8,-98 344.8,-105"/>
</g>
<!-- 4 -->
<g id="node6" class="node">
<title>4</title>
<polygon fill="none" stroke="black" points="710.7,-55.5 710.7,-91.5 951.7,-91.5 951.7,-55.5 710.7,-55.5"/>
<text text-anchor="middle" x="723.7" y="-69.8" font-family="Times,serif" font-size="14.00">d</text>
<polyline fill="none" stroke="black" points="736.7,-55.5 736.7,-91.5 "/>
<text text-anchor="middle" x="790.2" y="-69.8" font-family="Times,serif" font-size="14.00">data: 4.0000</text>
<polyline fill="none" stroke="black" points="843.7,-55.5 843.7,-91.5 "/>
<text text-anchor="middle" x="897.7" y="-69.8" font-family="Times,serif" font-size="14.00">grad: 0.0000</text>
</g>
<!-- 6999 -->
<g id="node10" class="node">
<title>6999</title>
<ellipse fill="none" stroke="black" cx="1005.7" cy="-45.5" rx="18" ry="18"/>
<text text-anchor="middle" x="1005.7" y="-41.8" font-family="Times,serif" font-size="14.00">*</text>
</g>
<!-- 4&#45;&gt;6999 -->
<g id="edge7" class="edge">
<title>4&#45;&gt;6999</title>
<path fill="none" stroke="black" d="M943.39,-55.45C956.13,-53.38 968.07,-51.45 977.97,-49.84"/>
<polygon fill="black" stroke="black" points="978.54,-53.29 987.85,-48.23 977.42,-46.38 978.54,-53.29"/>
</g>
<!-- 4999&#45;&gt;4 -->
<g id="edge5" class="edge">
<title>4999&#45;&gt;4</title>
<path fill="none" stroke="black" d="M674.75,-73.5C681.82,-73.5 690.59,-73.5 700.35,-73.5"/>
<polygon fill="black" stroke="black" points="700.41,-77 710.41,-73.5 700.41,-70 700.41,-77"/>
</g>
<!-- 5 -->
<g id="node8" class="node">
<title>5</title>
<polygon fill="none" stroke="black" points="710.7,-0.5 710.7,-36.5 951.7,-36.5 951.7,-0.5 710.7,-0.5"/>
<text text-anchor="middle" x="721.7" y="-14.8" font-family="Times,serif" font-size="14.00">f</text>
<polyline fill="none" stroke="black" points="732.7,-0.5 732.7,-36.5 "/>
<text text-anchor="middle" x="788.2" y="-14.8" font-family="Times,serif" font-size="14.00">data: &#45;2.0000</text>
<polyline fill="none" stroke="black" points="843.7,-0.5 843.7,-36.5 "/>
<text text-anchor="middle" x="897.7" y="-14.8" font-family="Times,serif" font-size="14.00">grad: 0.0000</text>
</g>
<!-- 5&#45;&gt;6999 -->
<g id="edge9" class="edge">
<title>5&#45;&gt;6999</title>
<path fill="none" stroke="black" d="M947.26,-36.51C958.5,-38.27 969.01,-39.91 977.89,-41.3"/>
<polygon fill="black" stroke="black" points="977.42,-44.77 987.84,-42.86 978.5,-37.86 977.42,-44.77"/>
</g>
<!-- 6 -->
<g id="node9" class="node">
<title>6</title>
<polygon fill="none" stroke="black" points="1059.7,-27.5 1059.7,-63.5 1304.7,-63.5 1304.7,-27.5 1059.7,-27.5"/>
<text text-anchor="middle" x="1072.7" y="-41.8" font-family="Times,serif" font-size="14.00">L</text>
<polyline fill="none" stroke="black" points="1085.7,-27.5 1085.7,-63.5 "/>
<text text-anchor="middle" x="1141.2" y="-41.8" font-family="Times,serif" font-size="14.00">data: &#45;8.0000</text>
<polyline fill="none" stroke="black" points="1196.7,-27.5 1196.7,-63.5 "/>
<text text-anchor="middle" x="1250.7" y="-41.8" font-family="Times,serif" font-size="14.00">grad: 0.0000</text>
</g>
<!-- 6999&#45;&gt;6 -->
<g id="edge8" class="edge">
<title>6999&#45;&gt;6</title>
<path fill="none" stroke="black" d="M1023.75,-45.5C1030.76,-45.5 1039.54,-45.5 1049.36,-45.5"/>
<polygon fill="black" stroke="black" points="1049.49,-49 1059.49,-45.5 1049.49,-42 1049.49,-49"/>
</g>
</g>
</svg>
